<?xml version="1.0" encoding="UTF-8"?><svg id="Layer_1" xmlns="http://www.w3.org/2000/svg" width="160" height="160" viewBox="0 0 160 160"><path d="M157.9,77.36c-1.5-.92-2.98-1.85-4.48-2.77-.35-.22-.72-.42-1.05-.66-.14-.1-.25-.29-.28-.45-.06-.32-.07-.65-.09-.98-.02-.31.03-.53.3-.77,1.12-1.01,2.2-2.07,3.29-3.11.75-.71,1.53-1.39,2.26-2.11,1.3-1.29.65-3.32-.87-3.87-2.38-.85-4.74-1.77-7.12-2.65-.33-.12-.41-.4-.49-.67-.37-1.26-.34-1.25.44-2.3,1.08-1.44,2.13-2.91,3.17-4.38.36-.51.76-1.03.99-1.61.56-1.44-.44-2.9-1.98-3.12-1.09-.15-2.17-.37-3.26-.55-1.06-.17-2.13-.33-3.2-.49-.37-.06-.75-.09-1.12-.17-.1-.02-.2-.15-.26-.25-.2-.35-.36-.72-.58-1.05-.15-.23-.12-.4-.01-.64,1.05-2.28,2.07-4.58,3.12-6.85.59-1.27.16-2.46-.91-3.11-.3-.18-.67-.3-1.02-.31-1.07-.02-2.15.03-3.22.07-.61.02-1.21.06-1.82.08-.9.03-1.82-.04-2.7.11-.57.1-.71-.27-.99-.52-.1-.09-.16-.25-.27-.33-.6-.47-.25-1.04-.14-1.54.5-2.17,1.05-4.34,1.56-6.51.18-.77.13-1.5-.36-2.2-.51-.72-1.56-1.08-2.35-.89-2.3.54-4.59,1.09-6.89,1.64-.24.06-.47.12-.72.16-.18.03-.34.05-.52-.12-.29-.29-.66-.5-.98-.77-.1-.08-.18-.24-.18-.36,0-.35.06-.7.07-1.06.03-1.13.05-2.25.08-3.38.02-.73.05-1.45.08-2.18.02-.42.06-.84.08-1.26.05-1.32-1.14-2.5-2.48-2.37-.41.04-.83.19-1.21.37-1.4.62-2.78,1.28-4.18,1.92-.85.39-1.71.77-2.58,1.14-.1.04-.25.04-.35,0-.41-.2-.85-.36-1.18-.65-.21-.18-.28-.55-.34-.85-.18-.93-.33-1.86-.48-2.8-.17-1.07-.3-2.14-.49-3.2-.12-.64-.24-1.3-.48-1.9-.36-.88-1.37-1.28-2.31-1.18-.9.09-1.45.7-2.11,1.15-1.2.82-2.36,1.7-3.54,2.54-.52.38-1.08.72-1.57,1.13-.24.2-.45.21-.7.14-.32-.08-.63-.24-.95-.3-.34-.07-.46-.27-.57-.57-.88-2.38-1.74-4.76-2.67-7.11-.6-1.51-2.58-1.98-3.8-.76-1,1-1.96,2.05-2.93,3.08-.73.78-1.49,1.54-2.18,2.36-.36.43-.72.54-1.22.35-.01,0-.03,0-.04,0-.8.17-1.13-.33-1.49-.92-1.19-1.99-2.43-3.96-3.66-5.93-.31-.5-.75-.87-1.39-1.04C80.16,0,79.76,0,79.36,0c-1.04.35-1.49,1.26-2,2.1-1,1.63-2.01,3.25-3.01,4.87-.05.08-.11.15-.15.23-.23.49-.58.65-1.16.76-.87.16-1.32-.25-1.82-.78-.9-.97-1.82-1.92-2.72-2.89-.67-.71-1.31-1.45-2-2.15-1.29-1.3-3.32-.66-3.87.87-.86,2.38-1.77,4.74-2.65,7.12-.12.33-.4.41-.67.49-1.26.37-1.25.34-2.3-.44-1.36-1.01-2.75-1.99-4.13-2.98-.35-.25-.7-.49-1.04-.76-.75-.6-1.59-.76-2.47-.41-.9.36-1.33,1.09-1.47,2.04-.18,1.23-.42,2.45-.63,3.68-.17,1.06-.34,2.13-.48,3.2-.07.54-.23.96-.8,1.13-.18.06-.34.19-.5.29-.25.15-.47.18-.78.04-2.36-1.1-4.72-2.19-7.11-3.22-1.32-.57-2.76.31-3.04,1.59-.12.55-.02,1.14-.02,1.71,0,.04,0,.08,0,.12.03,1.13.05,2.25.08,3.38.02.99,0,1.99.11,2.98.05.43-.1.63-.38.85-.23.17-.48.32-.67.53-.23.26-.45.21-.74.13-2.08-.5-4.17-.98-6.26-1.45-.57-.13-1.14-.29-1.72-.31-1.5-.03-2.54,1.42-2.2,2.82.55,2.28,1.08,4.57,1.62,6.85.04.15.03.32.09.46.19.43,0,.74-.27,1.05-.22.24-.41.51-.62.75-.07.07-.2.13-.3.13-.3,0-.6-.06-.9-.07-1.18-.03-2.36-.05-3.54-.08-.71-.02-1.43-.05-2.14-.08-.43-.02-.87-.06-1.3-.08-1.32-.05-2.49,1.15-2.36,2.49.04.41.2.83.37,1.21.63,1.4,1.28,2.78,1.92,4.18.39.85.77,1.71,1.15,2.57.04.09.03.22-.01.31-.2.42-.42.83-.64,1.24-.2.37-.61.25-.91.31-1.07.22-2.14.39-3.22.56-.9.15-1.8.25-2.7.42-.64.12-1.31.23-1.9.47-.9.37-1.3,1.37-1.2,2.34.07.74.53,1.23.9,1.77.78,1.13,1.6,2.23,2.4,3.35.53.74,1.08,1.46,1.6,2.21.1.15.11.41.07.6-.07.35-.22.69-.3,1.03-.06.26-.24.38-.46.46-2.39.88-4.78,1.74-7.15,2.66-1.54.59-2.06,2.57-.83,3.81,1.02,1.04,2.1,2.02,3.16,3.02.88.82,1.78,1.61,2.63,2.46.14.13.06.49.07.74,0,.06-.07.13-.05.18.2.89-.45,1.18-1.04,1.54-1.73,1.06-3.45,2.13-5.17,3.2-.31.19-.65.35-.9.6-.29.29-.51.65-.79,1.03C0,79.78,0,80.29,0,80.8c.17.24.3.53.52.7.72.54,1.47,1.05,2.23,1.54,1.4.89,2.83,1.76,4.24,2.64.15.1.29.22.46.29.4.17.48.48.47.87,0,.34.06.68.07,1.02,0,.09-.03.22-.1.28-.59.55-1.19,1.08-1.78,1.63-1.01.94-2.01,1.88-3,2.84-.49.47-1.04.92-1.38,1.49-.79,1.32.11,2.87,1.3,3.28,2.38.83,4.72,1.75,7.08,2.64.22.08.38.22.44.47.08.34.21.66.3,1,.07.26.05.48-.14.73-.93,1.23-1.82,2.49-2.72,3.75-.59.82-1.2,1.63-1.75,2.47-.94,1.43-.16,3.33,1.65,3.64,1.45.25,2.89.49,4.34.72,1.06.17,2.13.31,3.2.5.16.03.34.18.43.32.2.3.34.64.53.95.15.24.14.44,0,.71-1.07,2.31-2.12,4.64-3.16,6.96-.71,1.59.48,3.32,2.15,3.29,1.02-.02,2.04-.05,3.06-.08.75-.02,1.51-.04,2.26-.08.87-.04,1.73-.11,2.6-.15.09,0,.21.08.27.16.34.4.67.8,1.02,1.23-.49,2.04-1,4.1-1.48,6.17-.17.74-.37,1.5-.4,2.25-.05,1.49,1.41,2.54,2.82,2.2,2.28-.55,4.57-1.08,6.85-1.62.22-.05.45-.12.68-.15.19-.03.37-.06.55.13.31.31.69.55,1.03.84.07.06.13.2.12.3,0,.29-.06.57-.07.86-.03,1.18-.05,2.36-.08,3.54-.02.79,0,1.59-.09,2.38-.07.67-.13,1.33.1,1.97.33.92,1.5,1.77,2.59,1.42.67-.21,1.33-.48,1.97-.77,1.92-.86,3.82-1.74,5.73-2.61.09-.04.22-.03.31.01.42.2.88.36,1.22.66.21.19.27.58.33.9.17.9.32,1.81.47,2.72.15.9.25,1.8.43,2.69.16.81.12,1.65.53,2.41.46.86,1.39,1.29,2.36,1.19.74-.07,1.23-.52,1.77-.9,1.31-.91,2.59-1.86,3.88-2.8.52-.38,1.07-.73,1.57-1.14.24-.2.46-.19.7-.13.35.09.69.22,1.03.31.25.07.38.24.46.46.88,2.39,1.74,4.78,2.66,7.15.61,1.59,2.61,2.02,3.81.83.77-.76,1.45-1.6,2.18-2.39.34-.36.7-.7,1.04-1.06.75-.79,1.48-1.59,2.25-2.35.13-.13.47-.06.71-.07.06,0,.13.08.18.07.9-.2,1.2.44,1.57,1.05.91,1.51,1.85,3.01,2.79,4.51.4.63.84,1.24,1.29,1.84.14.19.36.31.59.49.55.03,1.05.03,1.56.03,1.03-.36,1.49-1.25,2.01-2.1.91-1.5,1.85-2.99,2.77-4.48.22-.35.42-.72.66-1.05.1-.14.29-.25.45-.28.32-.06.65-.07.98-.09.32-.02.55.02.8.32.61.73,1.31,1.38,1.97,2.08,1.09,1.16,2.13,2.35,3.25,3.47,1.21,1.22,3.24.73,3.83-.85.89-2.38,1.78-4.77,2.66-7.15.12-.33.4-.41.67-.49,1.26-.37,1.25-.34,2.3.44,1.48,1.09,2.98,2.16,4.48,3.22.48.34.96.74,1.5.94,1.55.58,3-.55,3.13-2.1.07-.86.27-1.72.41-2.58.12-.76.26-1.51.38-2.26.14-.86.26-1.72.42-2.58.02-.13.17-.26.29-.33.35-.21.71-.42,1.09-.59.14-.06.35-.07.49,0,2.31,1.04,4.62,2.08,6.93,3.15,1.26.58,2.45.17,3.1-.91.19-.32.3-.73.31-1.1.02-1.03-.04-2.07-.07-3.1-.02-.75-.04-1.51-.08-2.26-.04-.88-.11-1.76-.15-2.64,0-.08.03-.19.09-.24.4-.34.8-.67,1.22-.98.07-.05.21-.04.31-.02,1.51.35,3.01.71,4.52,1.06,1.08.26,2.15.59,3.24.75,1.73.27,3.01-1.22,2.64-2.81-.53-2.29-1.08-4.57-1.62-6.85-.06-.24-.12-.47-.16-.72-.03-.18-.05-.34.13-.51.31-.31.55-.69.84-1.03.06-.08.19-.13.29-.13.33,0,.65.06.98.07,1.13.03,2.25.05,3.38.08.75.02,1.51.05,2.26.08.42.02.84.06,1.26.08,1.38.05,2.49-1.19,2.36-2.48-.04-.41-.2-.83-.37-1.21-.62-1.4-1.28-2.78-1.92-4.18-.39-.85-.77-1.71-1.14-2.58-.04-.1-.04-.25.01-.35.2-.41.42-.8.63-1.2.2-.37.6-.25.91-.31,1.09-.22,2.2-.38,3.3-.56,1.06-.17,2.13-.33,3.2-.49.69-.11,1.37-.24,1.9-.78.83-.85.89-2.18.13-3.19-.95-1.26-1.87-2.55-2.79-3.84-.51-.71-1-1.45-1.54-2.14-.19-.24-.2-.45-.14-.7.08-.32.24-.63.3-.95.06-.35.27-.46.57-.57,2.38-.88,4.75-1.76,7.11-2.67,1.51-.58,1.96-2.62.75-3.81-1.03-1.01-2.08-2-3.14-2.98-.87-.81-1.77-1.58-2.61-2.41-.15-.15-.08-.52-.1-.79,0-.06.07-.13.06-.18-.16-.8.33-1.14.93-1.49,1.79-1.06,3.54-2.17,5.31-3.26.63-.39,1.28-.77,1.56-1.52.03-.07.04-.15.09-.27.03-.45.03-.85.03-1.25-.35-1.04-1.26-1.49-2.1-2ZM75.06,18.44c0-.09.02-.18.03-.27.02-.13.04-.26.07-.38.02-.07.03-.14.05-.21.06-.2.12-.39.21-.58.16-.34.34-.64.54-.92.03-.04.05-.08.08-.12h0c.67-.88,1.57-1.47,2.73-1.74,1.55-.36,2.9.05,4.08,1.08.24.21.45.44.64.67.17.21.32.44.45.67,0,0,0,.01,0,.02.12.23.23.47.31.71,0,0,0,.01,0,.02.08.23.13.48.16.73,0,.05.01.1.02.14.03.25.04.5.03.77-.01.28-.06.55-.12.81-.02.09-.04.19-.06.28-.05.19-.13.37-.2.56-.07.15-.14.3-.22.45h0c-.28.48-.63.92-1.11,1.29-.11.09-.22.2-.32.3-.69.47-1.41.73-2.17.79-1.56.14-2.9-.37-3.98-1.52-.23-.25-.42-.53-.59-.83-.33-.58-.54-1.24-.6-1.92,0-.06-.01-.11-.02-.17,0-.11,0-.22,0-.33,0-.1,0-.21.01-.31ZM18.27,61.66c0-.12.02-.25.04-.37.02-.12.03-.25.06-.37,0-.02.01-.04.02-.07.05-.25.14-.49.23-.72.07-.16.14-.33.23-.48.02-.04.04-.07.07-.11.13-.21.27-.41.43-.6.04-.04.07-.09.1-.13.11-.12.21-.24.34-.35.09-.08.18-.15.27-.22.17-.13.34-.25.53-.36.08-.05.16-.11.25-.15.8-.39,1.63-.58,2.54-.5.53.05,1.02.17,1.48.37.25.11.49.24.72.4,0,0,0,0,0,0,.22.15.43.32.63.52,1.2,1.2,1.7,2.64,1.36,4.35-.39,1.97-1.93,3.44-3.89,3.72-.26.04-.52.05-.77.05,0,0,0,0,0-.01-1.47,0-2.66-.64-3.64-1.83-.69-.84-1.01-1.82-1.01-2.87,0-.08,0-.16.01-.24ZM49.11,129.85c-.01.06-.02.13-.04.19-.04.15-.08.3-.13.45-.04.11-.09.23-.14.34-.05.11-.09.22-.15.32-.12.22-.26.44-.42.65-.8,1.03-1.85,1.59-3.14,1.81-2.47.41-4.97-1.62-5.26-4.03-.18-1.54.27-2.85,1.3-3.92.22-.22.45-.42.68-.59.02-.02.04-.03.06-.05.25-.17.5-.32.77-.43.77-.34,1.63-.45,2.57-.28.17.03.33.06.5.08.88.27,1.61.68,2.2,1.31.94,1.01,1.37,2.31,1.28,3.59-.01.18-.04.37-.08.55ZM118.89,131.8c-.86,1.22-2.01,1.9-3.5,2.04-1.52.14-2.79-.38-3.81-1.45-.19-.2-.36-.42-.51-.65-.1-.15-.18-.32-.26-.48-.03-.07-.08-.14-.11-.21-.09-.22-.17-.45-.23-.68,0-.01,0-.02-.01-.03-.06-.25-.1-.5-.12-.75-.11-1.23.25-2.5,1.09-3.49,1.41-1.65,3.73-2.04,5.54-1.2.16.07.32.16.47.25.2.12.4.25.58.4.92.8,1.46,1.79,1.66,2.97.11,1.23-.11,2.3-.79,3.26ZM138.39,83.84h-.03c-.84,11.56-5.03,22.18-11.61,30.91-.22.31-.44.61-.67.88-.05.05-.1.11-.14.16-1.2,1.52-2.49,2.97-3.83,4.37,0-.01-.02-.02-.02-.03,0,0-.01.01-.02.02-.25.29-.5.34-.85.26-1.65-.38-3.3-.75-4.95-1.11-1.67-.36-3.33-.77-5.01-1.03-1.23-.19-2.36.22-3.33,1.03-1.01.85-1.37,2-1.62,3.23-.52,2.54-1.06,5.08-1.6,7.63-.17.81-.36,1.61-.56,2.41-.03.14-.15.31-.27.36-.47.2-.94.4-1.41.59,0,.02.02.03.03.05-6.93,2.89-14.53,4.49-22.51,4.49-.11,0-.21,0-.32,0-.1,0-.21,0-.31,0-.75,0-1.5-.03-2.25-.07-.15,0-.3-.02-.45-.03-.3-.02-.6-.03-.9-.06-.55-.04-1.11-.08-1.66-.14-6.39-.64-12.48-2.32-18.09-4.85-.05-.02-.1-.04-.14-.06-.03-.01-.06-.03-.09-.05,0,0,0,0,0,0-.45-.29-.57-.73-.67-1.27-.22-1.18-.5-2.35-.75-3.53-.34-1.58-.66-3.16-1.01-4.74-.18-.83-.33-1.68-.62-2.47-.49-1.37-1.51-2.23-2.9-2.63-.75-.22-1.51-.19-2.28-.01-1.5.34-3.01.64-4.51.97-1.58.34-3.15.69-4.73,1.04-.23.05-.4,0-.55-.11h0c-.06-.05-.12-.1-.18-.17-.08-.09-.16-.18-.23-.26-7.44-7.91-12.7-17.87-14.83-28.96-.04-.16-.08-.32-.11-.48-.12-.57-.21-1.15-.28-1.74-.3-1.96-.5-3.96-.6-5.98,0-.06,0-.12-.01-.18-.01-.8-.03-1.57-.05-2.34,0-.14-.01-.28-.01-.42,0-.06,0-.12,0-.18,0-.48-.02-.96-.01-1.44,0-1.01.09-2.03.15-3.04.03-.48.09-.96.16-1.44,0-.01.01-.02.01-.04,0,0,0-.02,0-.03.36-.14.72-.27,1.08-.41,2.03-.77,4.05-1.54,6.08-2.3.96-.36,1.94-.7,2.9-1.08,1.16-.46,2.36-.86,3.14-1.82,1.09-1.34,1.43-2.78.74-4.31-.52-1.16-1.17-2.28-1.75-3.41-.95-1.84-1.89-3.68-2.84-5.52-.67-1.29-1.37-2.58-2.04-3.88,2.11-3.73,4.62-7.2,7.47-10.36.02-.06.04-.12.07-.15.95-.98,1.86-2.02,2.87-2.93.31-.28.63-.55.95-.83,1.03-.95,2.11-1.85,3.21-2.73.2-.16.4-.33.6-.5,2.02-1.65,4.19-3.09,6.47-4.35.43-.24.85-.47,1.28-.7.06-.03.11-.06.17-.09,1.07-.58,2.15-1.16,3.25-1.68,2.42-1.14,4.92-2.11,7.49-2.86.68-.2,1.37-.37,2.06-.54,1.25-.32,2.5-.62,3.75-.93.08-.02.15-.03.21-.02,0,0,.01,0,.02,0,.06,0,.11.02.16.03.27.1.43.39.64.58.07.06.09.16.16.22.81.84,1.62,1.68,2.44,2.52.78.8,1.55,1.6,2.33,2.41.7.73,1.36,1.49,2.11,2.17.99.9,2.18,1.17,3.51.99,1.17-.16,2.03-.81,2.83-1.58,1.01-.96,2-1.95,3-2.92,1.15-1.1,2.3-2.2,3.45-3.29.36-.35.72-.7,1.11-1.02.05-.04.13-.07.2-.08.09-.02.19-.02.27,0,1.1.26,2.21.49,3.31.76.55.14,1.1.28,1.65.45.31.09.62.2.93.3.36.11.71.23,1.07.34.55.18,1.1.36,1.65.56.33.12.65.24.97.36.49.18.99.35,1.47.55.2.08.39.18.58.26.04.02.07.03.11.05.81.35,1.62.71,2.42,1.09.21.1.42.22.64.32.7.35,1.4.69,2.08,1.05,2.05,1.07,4.01,2.29,5.87,3.68.31.23.62.46.93.7.13.1.26.19.39.29.78.58,1.55,1.17,2.31,1.77.77.61,1.49,1.29,2.21,1.96.81.75,1.62,1.5,2.37,2.3.41.44.81.89,1.2,1.34.02.02.03.04.05.06.55.63,1.09,1.26,1.64,1.88,1.64,1.88,3.07,3.92,4.42,6.02.22.35.43.71.64,1.06,0,0,0,0,0,0,.1.16.19.33.29.49.11.19.24.38.34.57.01.02,0,.05.01.08.05.16.04.38-.03.54-.56,1.29-1.15,2.56-1.72,3.84-.79,1.79-1.57,3.58-2.36,5.37-.49,1.11-1.02,2.2-1.46,3.32-.57,1.49-.28,2.89.62,4.2.64.93,1.64,1.32,2.6,1.77.79.37,1.6.69,2.4,1.05,1.68.74,3.36,1.49,5.05,2.24.72.32,1.43.65,2.15.95.16.07.24.18.28.3h0c.02.05.05.1.05.15.01.13.02.25.03.38.05.66.11,1.32.13,1.98.04,1.31.09,2.63.08,3.94-.01,1.15-.1,2.29-.16,3.49ZM140.04,65.21c-.18.21-.38.39-.58.56-.05.04-.1.08-.14.11-.2.15-.4.29-.61.41,0,0-.01,0-.02.01-.24.13-.48.23-.73.31-.02,0-.03,0-.05.01-.25.08-.51.13-.77.16-.43.05-.87.05-1.34-.02-1.96-.28-3.49-1.74-3.89-3.72-.34-1.71.15-3.16,1.36-4.35.34-.34.72-.59,1.13-.8.25-.13.52-.23.8-.31,0,0,.02,0,.02,0,.28-.08.58-.14.89-.16.94-.08,1.79.12,2.61.53,1.3.73,2.11,1.77,2.39,3.16.31,1.52-.02,2.9-1.07,4.1Z" style="fill:#84838b;"/><path d="M95.26,78.88s4.25,1.28,6.72,2.53c.86.43,2.34,1.3,3.41,2.44,1.05,1.11,1.56,2.24,1.56,2.24l16.76,28.26h-27.09s-12.67-23.78-12.67-23.78c0,0-2.59-4.46-4.19-5.75-1.33-1.08-1.9-1.46-3.22-1.46h-6.44v30.98s-23.97.01-23.97.01V35.21h48.14s21.92.4,21.92,21.25-20.95,22.41-20.95,22.41ZM84.84,52.38h-14.51s0,13.45,0,13.45h14.52s6.72-.03,6.72-6.85-6.72-6.6-6.72-6.6Z" style="fill:#165caa; fill-rule:evenodd;"/></svg>